<mxfile host="app.diagrams.net" modified="2024-06-19T12:16:03.837Z" agent="Mozilla/5.0 (Macintosh; Intel Mac OS X 10_15_7) AppleWebKit/537.36 (KHTML, like Gecko) Chrome/125.0.0.0 Safari/537.36" etag="mHyEXZIGYM_EU6DnBY3h" version="24.5.5" type="github">
  <diagram id="_iA2iY5-yiGGR4RjOuDj" name="第 1 页">
    <mxGraphModel dx="855" dy="1268" grid="1" gridSize="10" guides="1" tooltips="1" connect="1" arrows="1" fold="1" page="1" pageScale="1" pageWidth="850" pageHeight="1100" math="0" shadow="0">
      <root>
        <mxCell id="0" />
        <mxCell id="1" parent="0" />
        <mxCell id="Fcsq9IjdKkZMBzK0WERJ-1" value="" style="rounded=0;whiteSpace=wrap;html=1;" vertex="1" parent="1">
          <mxGeometry x="720" y="180" width="100" height="690" as="geometry" />
        </mxCell>
        <mxCell id="CSbPJWY7NKhsalRFJAfI-1" value="" style="rounded=0;whiteSpace=wrap;html=1;" parent="1" vertex="1">
          <mxGeometry x="61" y="180" width="100" height="690" as="geometry" />
        </mxCell>
        <mxCell id="CSbPJWY7NKhsalRFJAfI-4" value="" style="endArrow=classic;html=1;rounded=0;entryX=0.018;entryY=0.123;entryDx=0;entryDy=0;entryPerimeter=0;" parent="1" target="e2gjy9H0XDeadhWA6tdg-10" edge="1">
          <mxGeometry width="50" height="50" relative="1" as="geometry">
            <mxPoint x="160" y="240" as="sourcePoint" />
            <mxPoint x="470" y="290" as="targetPoint" />
          </mxGeometry>
        </mxCell>
        <mxCell id="CSbPJWY7NKhsalRFJAfI-5" value="request" style="edgeLabel;html=1;align=center;verticalAlign=middle;resizable=0;points=[];" parent="CSbPJWY7NKhsalRFJAfI-4" vertex="1" connectable="0">
          <mxGeometry x="-0.0497" y="4" relative="1" as="geometry">
            <mxPoint as="offset" />
          </mxGeometry>
        </mxCell>
        <mxCell id="CSbPJWY7NKhsalRFJAfI-14" value="" style="endArrow=classic;html=1;rounded=0;entryX=1.01;entryY=0.606;entryDx=0;entryDy=0;entryPerimeter=0;exitX=0.002;exitY=0.36;exitDx=0;exitDy=0;exitPerimeter=0;" parent="1" source="e2gjy9H0XDeadhWA6tdg-10" edge="1">
          <mxGeometry width="50" height="50" relative="1" as="geometry">
            <mxPoint x="470" y="410" as="sourcePoint" />
            <mxPoint x="161" y="473" as="targetPoint" />
          </mxGeometry>
        </mxCell>
        <mxCell id="CSbPJWY7NKhsalRFJAfI-15" value="Response" style="edgeLabel;html=1;align=center;verticalAlign=middle;resizable=0;points=[];" parent="CSbPJWY7NKhsalRFJAfI-14" vertex="1" connectable="0">
          <mxGeometry x="0.037" relative="1" as="geometry">
            <mxPoint as="offset" />
          </mxGeometry>
        </mxCell>
        <mxCell id="bvm6M7adbp71QpQFMnHM-2" value="Web Browser" style="text;html=1;align=center;verticalAlign=middle;resizable=0;points=[];autosize=1;strokeColor=none;fillColor=none;" parent="1" vertex="1">
          <mxGeometry x="61" y="150" width="100" height="30" as="geometry" />
        </mxCell>
        <mxCell id="bvm6M7adbp71QpQFMnHM-8" value="User" style="text;html=1;align=center;verticalAlign=middle;whiteSpace=wrap;rounded=0;" parent="1" vertex="1">
          <mxGeometry x="81" y="230" width="60" height="30" as="geometry" />
        </mxCell>
        <mxCell id="e2gjy9H0XDeadhWA6tdg-10" value="" style="rounded=0;whiteSpace=wrap;html=1;" parent="1" vertex="1">
          <mxGeometry x="410" y="180" width="100" height="690" as="geometry" />
        </mxCell>
        <mxCell id="e2gjy9H0XDeadhWA6tdg-11" value="SSR Server" style="text;html=1;align=center;verticalAlign=middle;resizable=0;points=[];autosize=1;strokeColor=none;fillColor=none;" parent="1" vertex="1">
          <mxGeometry x="407" y="150" width="90" height="30" as="geometry" />
        </mxCell>
        <mxCell id="e2gjy9H0XDeadhWA6tdg-52" style="edgeStyle=orthogonalEdgeStyle;rounded=0;orthogonalLoop=1;jettySize=auto;html=1;" parent="1" edge="1">
          <mxGeometry relative="1" as="geometry">
            <mxPoint x="111" y="494" as="sourcePoint" />
            <mxPoint x="111" y="524" as="targetPoint" />
          </mxGeometry>
        </mxCell>
        <mxCell id="e2gjy9H0XDeadhWA6tdg-47" value="Parse &amp;lt;head&amp;gt;" style="text;html=1;align=center;verticalAlign=middle;whiteSpace=wrap;rounded=0;" parent="1" vertex="1">
          <mxGeometry x="61" y="473" width="101" height="30" as="geometry" />
        </mxCell>
        <mxCell id="e2gjy9H0XDeadhWA6tdg-53" style="edgeStyle=orthogonalEdgeStyle;rounded=0;orthogonalLoop=1;jettySize=auto;html=1;" parent="1" source="e2gjy9H0XDeadhWA6tdg-48" edge="1">
          <mxGeometry relative="1" as="geometry">
            <mxPoint x="111" y="560" as="sourcePoint" />
            <mxPoint x="111" y="580" as="targetPoint" />
          </mxGeometry>
        </mxCell>
        <mxCell id="e2gjy9H0XDeadhWA6tdg-48" value="Fetch Resource&lt;div&gt;(Optional)&lt;/div&gt;" style="text;html=1;align=center;verticalAlign=middle;whiteSpace=wrap;rounded=0;" parent="1" vertex="1">
          <mxGeometry x="61" y="523" width="101" height="30" as="geometry" />
        </mxCell>
        <mxCell id="e2gjy9H0XDeadhWA6tdg-54" style="edgeStyle=orthogonalEdgeStyle;rounded=0;orthogonalLoop=1;jettySize=auto;html=1;exitX=0.5;exitY=1;exitDx=0;exitDy=0;" parent="1" edge="1">
          <mxGeometry relative="1" as="geometry">
            <mxPoint x="111.5" y="608" as="sourcePoint" />
            <mxPoint x="111.55555555555543" y="628" as="targetPoint" />
            <Array as="points">
              <mxPoint x="111" y="598" />
              <mxPoint x="112" y="598" />
            </Array>
          </mxGeometry>
        </mxCell>
        <mxCell id="e2gjy9H0XDeadhWA6tdg-49" value="Parse &amp;lt;body&amp;gt;" style="text;html=1;align=center;verticalAlign=middle;whiteSpace=wrap;rounded=0;" parent="1" vertex="1">
          <mxGeometry x="61" y="573" width="101" height="30" as="geometry" />
        </mxCell>
        <mxCell id="e2gjy9H0XDeadhWA6tdg-55" style="edgeStyle=orthogonalEdgeStyle;rounded=0;orthogonalLoop=1;jettySize=auto;html=1;" parent="1" source="e2gjy9H0XDeadhWA6tdg-50" target="e2gjy9H0XDeadhWA6tdg-51" edge="1">
          <mxGeometry relative="1" as="geometry" />
        </mxCell>
        <mxCell id="cBneQ7pibI9SkyUdJgwh-20" style="edgeStyle=orthogonalEdgeStyle;rounded=0;orthogonalLoop=1;jettySize=auto;html=1;" parent="1" source="e2gjy9H0XDeadhWA6tdg-50" target="cBneQ7pibI9SkyUdJgwh-5" edge="1">
          <mxGeometry relative="1" as="geometry">
            <mxPoint x="70.52380952380963" y="638" as="sourcePoint" />
            <mxPoint x="-40" y="760" as="targetPoint" />
            <Array as="points">
              <mxPoint x="20" y="638" />
              <mxPoint x="20" y="758" />
            </Array>
          </mxGeometry>
        </mxCell>
        <mxCell id="e2gjy9H0XDeadhWA6tdg-50" value="Render HTML" style="text;html=1;align=center;verticalAlign=middle;whiteSpace=wrap;rounded=0;" parent="1" vertex="1">
          <mxGeometry x="61" y="623" width="101" height="30" as="geometry" />
        </mxCell>
        <mxCell id="e2gjy9H0XDeadhWA6tdg-51" value="Fetch LCP Image (Optional)" style="text;html=1;align=center;verticalAlign=middle;whiteSpace=wrap;rounded=0;" parent="1" vertex="1">
          <mxGeometry x="61" y="683" width="101" height="30" as="geometry" />
        </mxCell>
        <mxCell id="e2gjy9H0XDeadhWA6tdg-56" value="" style="shape=flexArrow;endArrow=classic;html=1;rounded=0;" parent="1" edge="1">
          <mxGeometry width="50" height="50" relative="1" as="geometry">
            <mxPoint x="900" y="120" as="sourcePoint" />
            <mxPoint x="900" y="900" as="targetPoint" />
          </mxGeometry>
        </mxCell>
        <mxCell id="e2gjy9H0XDeadhWA6tdg-57" value="" style="endArrow=none;dashed=1;html=1;rounded=0;fillColor=#dae8fc;strokeColor=#6c8ebf;strokeWidth=2;" parent="1" edge="1">
          <mxGeometry width="50" height="50" relative="1" as="geometry">
            <mxPoint x="60" y="240" as="sourcePoint" />
            <mxPoint x="890" y="240" as="targetPoint" />
          </mxGeometry>
        </mxCell>
        <mxCell id="e2gjy9H0XDeadhWA6tdg-58" value="Navigation Start" style="text;html=1;align=center;verticalAlign=middle;whiteSpace=wrap;rounded=0;fillColor=#dae8fc;strokeColor=#6c8ebf;" parent="1" vertex="1">
          <mxGeometry x="830" y="200" width="60" height="30" as="geometry" />
        </mxCell>
        <mxCell id="e2gjy9H0XDeadhWA6tdg-59" value="" style="endArrow=none;dashed=1;html=1;rounded=0;fillColor=#dae8fc;strokeColor=#6c8ebf;strokeWidth=2;" parent="1" edge="1">
          <mxGeometry width="50" height="50" relative="1" as="geometry">
            <mxPoint x="62" y="473" as="sourcePoint" />
            <mxPoint x="900" y="473" as="targetPoint" />
          </mxGeometry>
        </mxCell>
        <mxCell id="e2gjy9H0XDeadhWA6tdg-60" value="TTFB" style="text;html=1;align=center;verticalAlign=middle;whiteSpace=wrap;rounded=0;fillColor=#dae8fc;strokeColor=#6c8ebf;" parent="1" vertex="1">
          <mxGeometry x="830" y="435" width="60" height="30" as="geometry" />
        </mxCell>
        <mxCell id="e2gjy9H0XDeadhWA6tdg-61" value="" style="endArrow=none;dashed=1;html=1;rounded=0;fillColor=#dae8fc;strokeColor=#6c8ebf;strokeWidth=2;" parent="1" edge="1">
          <mxGeometry width="50" height="50" relative="1" as="geometry">
            <mxPoint x="59.5" y="720.5" as="sourcePoint" />
            <mxPoint x="890" y="720" as="targetPoint" />
          </mxGeometry>
        </mxCell>
        <mxCell id="e2gjy9H0XDeadhWA6tdg-62" value="LCP" style="text;html=1;align=center;verticalAlign=middle;whiteSpace=wrap;rounded=0;fillColor=#dae8fc;strokeColor=#6c8ebf;" parent="1" vertex="1">
          <mxGeometry x="830" y="683" width="60" height="30" as="geometry" />
        </mxCell>
        <mxCell id="e2gjy9H0XDeadhWA6tdg-63" value="" style="endArrow=none;dashed=1;html=1;rounded=0;fillColor=#dae8fc;strokeColor=#6c8ebf;strokeWidth=2;" parent="1" edge="1">
          <mxGeometry width="50" height="50" relative="1" as="geometry">
            <mxPoint x="61" y="661" as="sourcePoint" />
            <mxPoint x="890" y="660" as="targetPoint" />
          </mxGeometry>
        </mxCell>
        <mxCell id="e2gjy9H0XDeadhWA6tdg-64" value="FCP" style="text;html=1;align=center;verticalAlign=middle;whiteSpace=wrap;rounded=0;fillColor=#dae8fc;strokeColor=#6c8ebf;" parent="1" vertex="1">
          <mxGeometry x="830" y="623" width="60" height="30" as="geometry" />
        </mxCell>
        <mxCell id="cBneQ7pibI9SkyUdJgwh-10" value="" style="edgeStyle=orthogonalEdgeStyle;rounded=0;orthogonalLoop=1;jettySize=auto;html=1;" parent="1" source="cBneQ7pibI9SkyUdJgwh-5" target="cBneQ7pibI9SkyUdJgwh-8" edge="1">
          <mxGeometry relative="1" as="geometry" />
        </mxCell>
        <mxCell id="cBneQ7pibI9SkyUdJgwh-5" value="Execute Module Scripts" style="text;html=1;align=center;verticalAlign=middle;whiteSpace=wrap;rounded=0;" parent="1" vertex="1">
          <mxGeometry x="61" y="743" width="101" height="30" as="geometry" />
        </mxCell>
        <mxCell id="cBneQ7pibI9SkyUdJgwh-8" value="Application&lt;div&gt;Interactive&lt;/div&gt;" style="text;html=1;align=center;verticalAlign=middle;whiteSpace=wrap;rounded=0;" parent="1" vertex="1">
          <mxGeometry x="61" y="802" width="101" height="30" as="geometry" />
        </mxCell>
        <mxCell id="cBneQ7pibI9SkyUdJgwh-11" value="" style="endArrow=none;dashed=1;html=1;rounded=0;fillColor=#dae8fc;strokeColor=#6c8ebf;strokeWidth=2;" parent="1" edge="1">
          <mxGeometry width="50" height="50" relative="1" as="geometry">
            <mxPoint x="61" y="832.5" as="sourcePoint" />
            <mxPoint x="890" y="832" as="targetPoint" />
          </mxGeometry>
        </mxCell>
        <mxCell id="cBneQ7pibI9SkyUdJgwh-12" value="" style="endArrow=classic;startArrow=classic;html=1;rounded=0;dashed=1;dashPattern=8 8;" parent="1" edge="1">
          <mxGeometry width="50" height="50" relative="1" as="geometry">
            <mxPoint x="210" y="832" as="sourcePoint" />
            <mxPoint x="210" y="658" as="targetPoint" />
          </mxGeometry>
        </mxCell>
        <mxCell id="cBneQ7pibI9SkyUdJgwh-14" value="TBT =&amp;nbsp; Timing - LongTaskNum * 50ms" style="text;html=1;align=center;verticalAlign=middle;whiteSpace=wrap;rounded=0;fillColor=#dae8fc;strokeColor=#6c8ebf;" parent="1" vertex="1">
          <mxGeometry x="220" y="743" width="210" height="30" as="geometry" />
        </mxCell>
        <mxCell id="cBneQ7pibI9SkyUdJgwh-16" value="&lt;span style=&quot;color: rgb(27, 27, 27); font-family: Menlo, Consolas, Monaco, &amp;quot;Liberation Mono&amp;quot;, &amp;quot;Lucida Console&amp;quot;, monospace; font-size: 13.328px; text-align: start; background-color: rgb(242, 241, 241);&quot;&gt;DOMContentLoaded&lt;/span&gt;" style="text;html=1;align=center;verticalAlign=middle;whiteSpace=wrap;rounded=0;fillColor=#ffe6cc;strokeColor=#d79b00;" parent="1" vertex="1">
          <mxGeometry x="738" y="790" width="152" height="37" as="geometry" />
        </mxCell>
        <mxCell id="Fcsq9IjdKkZMBzK0WERJ-2" value="API Server" style="text;html=1;align=center;verticalAlign=middle;resizable=0;points=[];autosize=1;strokeColor=none;fillColor=none;" vertex="1" parent="1">
          <mxGeometry x="730" y="150" width="80" height="30" as="geometry" />
        </mxCell>
        <mxCell id="Fcsq9IjdKkZMBzK0WERJ-17" value="" style="edgeStyle=orthogonalEdgeStyle;rounded=0;orthogonalLoop=1;jettySize=auto;html=1;" edge="1" parent="1" source="Fcsq9IjdKkZMBzK0WERJ-3" target="Fcsq9IjdKkZMBzK0WERJ-5">
          <mxGeometry relative="1" as="geometry" />
        </mxCell>
        <mxCell id="Fcsq9IjdKkZMBzK0WERJ-3" value="Route Resove" style="text;html=1;align=center;verticalAlign=middle;whiteSpace=wrap;rounded=0;" vertex="1" parent="1">
          <mxGeometry x="430" y="250" width="60" height="30" as="geometry" />
        </mxCell>
        <mxCell id="Fcsq9IjdKkZMBzK0WERJ-5" value="Fetch API" style="text;html=1;align=center;verticalAlign=middle;whiteSpace=wrap;rounded=0;" vertex="1" parent="1">
          <mxGeometry x="430" y="310" width="60" height="30" as="geometry" />
        </mxCell>
        <mxCell id="Fcsq9IjdKkZMBzK0WERJ-6" value="" style="endArrow=classic;html=1;rounded=0;entryX=0;entryY=0.25;entryDx=0;entryDy=0;" edge="1" parent="1">
          <mxGeometry width="50" height="50" relative="1" as="geometry">
            <mxPoint x="510" y="320" as="sourcePoint" />
            <mxPoint x="720" y="342.5" as="targetPoint" />
          </mxGeometry>
        </mxCell>
        <mxCell id="Fcsq9IjdKkZMBzK0WERJ-9" value="API Request 1" style="edgeLabel;html=1;align=center;verticalAlign=middle;resizable=0;points=[];" vertex="1" connectable="0" parent="Fcsq9IjdKkZMBzK0WERJ-6">
          <mxGeometry x="-0.2531" y="2" relative="1" as="geometry">
            <mxPoint x="-9" y="-1" as="offset" />
          </mxGeometry>
        </mxCell>
        <mxCell id="Fcsq9IjdKkZMBzK0WERJ-7" value="" style="endArrow=classic;html=1;rounded=0;entryX=0;entryY=0.25;entryDx=0;entryDy=0;" edge="1" parent="1">
          <mxGeometry width="50" height="50" relative="1" as="geometry">
            <mxPoint x="510" y="340" as="sourcePoint" />
            <mxPoint x="720" y="363" as="targetPoint" />
          </mxGeometry>
        </mxCell>
        <mxCell id="Fcsq9IjdKkZMBzK0WERJ-10" value="API Request 2" style="edgeLabel;html=1;align=center;verticalAlign=middle;resizable=0;points=[];" vertex="1" connectable="0" parent="Fcsq9IjdKkZMBzK0WERJ-7">
          <mxGeometry x="-0.0217" y="5" relative="1" as="geometry">
            <mxPoint x="-33" as="offset" />
          </mxGeometry>
        </mxCell>
        <mxCell id="Fcsq9IjdKkZMBzK0WERJ-11" value="" style="endArrow=classic;html=1;rounded=0;entryX=1.027;entryY=0.317;entryDx=0;entryDy=0;entryPerimeter=0;" edge="1" parent="1" target="e2gjy9H0XDeadhWA6tdg-10">
          <mxGeometry width="50" height="50" relative="1" as="geometry">
            <mxPoint x="720" y="380" as="sourcePoint" />
            <mxPoint x="620" y="460" as="targetPoint" />
          </mxGeometry>
        </mxCell>
        <mxCell id="Fcsq9IjdKkZMBzK0WERJ-13" value="API Response 1" style="edgeLabel;html=1;align=center;verticalAlign=middle;resizable=0;points=[];" vertex="1" connectable="0" parent="Fcsq9IjdKkZMBzK0WERJ-11">
          <mxGeometry x="0.5421" y="-2" relative="1" as="geometry">
            <mxPoint x="20" as="offset" />
          </mxGeometry>
        </mxCell>
        <mxCell id="Fcsq9IjdKkZMBzK0WERJ-12" value="" style="endArrow=classic;html=1;rounded=0;entryX=1.027;entryY=0.317;entryDx=0;entryDy=0;entryPerimeter=0;exitX=0.011;exitY=0.317;exitDx=0;exitDy=0;exitPerimeter=0;" edge="1" parent="1" source="Fcsq9IjdKkZMBzK0WERJ-1">
          <mxGeometry width="50" height="50" relative="1" as="geometry">
            <mxPoint x="714" y="400" as="sourcePoint" />
            <mxPoint x="510" y="419" as="targetPoint" />
          </mxGeometry>
        </mxCell>
        <mxCell id="Fcsq9IjdKkZMBzK0WERJ-14" value="&lt;span style=&quot;color: rgba(0, 0, 0, 0); font-family: monospace; font-size: 0px; text-align: start; background-color: rgb(251, 251, 251);&quot;&gt;%3CmxGraphModel%3E%3Croot%3E%3CmxCell%20id%3D%220%22%2F%3E%3CmxCell%20id%3D%221%22%20parent%3D%220%22%2F%3E%3CmxCell%20id%3D%222%22%20value%3D%22API%20Response%201%22%20style%3D%22edgeLabel%3Bhtml%3D1%3Balign%3Dcenter%3BverticalAlign%3Dmiddle%3Bresizable%3D0%3Bpoints%3D%5B%5D%3B%22%20vertex%3D%221%22%20connectable%3D%220%22%20parent%3D%221%22%3E%3CmxGeometry%20x%3D%22580.4691380791903%22%20y%3D%22392.40580891371224%22%20as%3D%22geometry%22%2F%3E%3C%2FmxCell%3E%3C%2Froot%3E%3C%2FmxGraphModel%3E&lt;/span&gt;" style="edgeLabel;html=1;align=center;verticalAlign=middle;resizable=0;points=[];" vertex="1" connectable="0" parent="Fcsq9IjdKkZMBzK0WERJ-12">
          <mxGeometry x="0.1781" y="1" relative="1" as="geometry">
            <mxPoint as="offset" />
          </mxGeometry>
        </mxCell>
        <mxCell id="Fcsq9IjdKkZMBzK0WERJ-15" value="API Response 2" style="edgeLabel;html=1;align=center;verticalAlign=middle;resizable=0;points=[];" vertex="1" connectable="0" parent="Fcsq9IjdKkZMBzK0WERJ-12">
          <mxGeometry x="0.1791" y="2" relative="1" as="geometry">
            <mxPoint x="-16" as="offset" />
          </mxGeometry>
        </mxCell>
        <mxCell id="Fcsq9IjdKkZMBzK0WERJ-16" value="RenderToString" style="text;html=1;align=center;verticalAlign=middle;whiteSpace=wrap;rounded=0;" vertex="1" parent="1">
          <mxGeometry x="430" y="405" width="60" height="30" as="geometry" />
        </mxCell>
        <mxCell id="Fcsq9IjdKkZMBzK0WERJ-18" value="Server&lt;div&gt;Thinking&lt;/div&gt;&lt;div&gt;...&lt;/div&gt;" style="text;html=1;align=center;verticalAlign=middle;whiteSpace=wrap;rounded=0;" vertex="1" parent="1">
          <mxGeometry x="720" y="350" width="100" height="50" as="geometry" />
        </mxCell>
      </root>
    </mxGraphModel>
  </diagram>
</mxfile>
